<svg width="24" height="45" viewBox="0 0 24 45" fill="none" xmlns="http://www.w3.org/2000/svg">
<path fill-rule="evenodd" clip-rule="evenodd" d="M0.566203 0.698096C0.724541 0.540269 0.912639 0.41505 1.11972 0.329612C1.32681 0.244174 1.54881 0.200195 1.77302 0.200195C1.99723 0.200195 2.21923 0.244174 2.42632 0.329612C2.6334 0.41505 2.8215 0.540269 2.97984 0.698096L23.4344 21.0353C23.5931 21.1927 23.7191 21.3797 23.805 21.5856C23.8909 21.7915 23.9352 22.0122 23.9352 22.2351C23.9352 22.4581 23.8909 22.6788 23.805 22.8847C23.7191 23.0906 23.5931 23.2776 23.4344 23.435L2.97984 43.7722C2.65977 44.0904 2.22567 44.2692 1.77302 44.2692C1.32038 44.2692 0.886271 44.0904 0.566203 43.7722C0.246135 43.454 0.0663221 43.0224 0.0663221 42.5723C0.0663221 42.1223 0.246135 41.6906 0.566203 41.3724L19.8173 22.2351L0.566203 3.09788C0.407465 2.94045 0.281523 2.75343 0.195592 2.54754C0.109661 2.34164 0.0654297 2.12091 0.0654297 1.89799C0.0654297 1.67507 0.109661 1.45434 0.195592 1.24844C0.281523 1.04254 0.407465 0.855525 0.566203 0.698096Z" fill="white"/>
</svg>
